<svg width="195" height="253" viewBox="0 0 195 253" fill="none" xmlns="http://www.w3.org/2000/svg">
<path d="M114.102 100.865L92.397 85.133L116.067 74.8679L83.3835 58.6655L152.801 17.8549L122.581 57.921L154.559 73.805L114.102 100.865Z" fill="#FFB930" stroke="#1B1B1B" stroke-width="3"/>
<path d="M68.8964 154.815L91.139 171.775L66.8477 181.177L95.5202 194.747L29.1003 237.564L60.1454 198.131L27.3656 180.566L68.8964 154.815Z" fill="#FFB930" stroke="#1B1B1B" stroke-width="3"/>
<mask id="path-3-inside-1_1_58" fill="white">
<path fill-rule="evenodd" clip-rule="evenodd" d="M138.613 81.6048C145.404 85.5252 147.824 94.1084 144.163 100.975L144.171 100.979C168.085 114.786 176.279 145.366 162.472 169.28C148.665 193.195 118.085 201.389 94.1708 187.582L51.3155 162.839L51.3025 162.832L51.2895 162.824L50.8695 162.582L50.8737 162.574C44.2708 158.458 42.0748 149.815 45.9952 143.024C47.3676 140.647 49.3116 138.806 51.5533 137.573L49.3121 136.279L48.8791 136.029L48.8834 136.022C42.2804 131.905 40.0844 123.262 44.0048 116.472C47.0732 111.157 52.9979 108.52 58.7204 109.379C55.1148 104.853 54.4364 98.4037 57.5048 93.089C61.4252 86.2987 70.0084 83.8789 76.8749 87.539L76.8791 87.5317L77.3121 87.7817L79.5533 89.0756C79.4998 86.518 80.1227 83.9137 81.4952 81.5365C85.4155 74.7462 93.9988 72.3264 100.865 75.9864L100.87 75.9791L101.303 76.2291L119.063 86.4834C123.18 79.8804 131.823 77.6844 138.613 81.6048Z"/>
</mask>
<path fill-rule="evenodd" clip-rule="evenodd" d="M138.613 81.6048C145.404 85.5252 147.824 94.1084 144.163 100.975L144.171 100.979C168.085 114.786 176.279 145.366 162.472 169.28C148.665 193.195 118.085 201.389 94.1708 187.582L51.3155 162.839L51.3025 162.832L51.2895 162.824L50.8695 162.582L50.8737 162.574C44.2708 158.458 42.0748 149.815 45.9952 143.024C47.3676 140.647 49.3116 138.806 51.5533 137.573L49.3121 136.279L48.8791 136.029L48.8834 136.022C42.2804 131.905 40.0844 123.262 44.0048 116.472C47.0732 111.157 52.9979 108.52 58.7204 109.379C55.1148 104.853 54.4364 98.4037 57.5048 93.089C61.4252 86.2987 70.0084 83.8789 76.8749 87.539L76.8791 87.5317L77.3121 87.7817L79.5533 89.0756C79.4998 86.518 80.1227 83.9137 81.4952 81.5365C85.4155 74.7462 93.9988 72.3264 100.865 75.9864L100.87 75.9791L101.303 76.2291L119.063 86.4834C123.18 79.8804 131.823 77.6844 138.613 81.6048Z" fill="#F7F7F7"/>
<path d="M144.163 100.975L141.516 99.5637L140.152 102.124L142.664 103.573L144.163 100.975ZM144.171 100.979L145.671 98.381L145.67 98.3807L144.171 100.979ZM51.3155 162.839L52.8155 160.241L52.8142 160.24L51.3155 162.839ZM51.3025 162.832L49.8012 165.429L49.8038 165.431L51.3025 162.832ZM51.2895 162.824L52.7908 160.227L52.7895 160.226L51.2895 162.824ZM50.8695 162.582L48.2714 161.082L46.7714 163.68L49.3695 165.18L50.8695 162.582ZM50.8737 162.574L53.4718 164.074L54.9218 161.563L52.4609 160.029L50.8737 162.574ZM51.5533 137.573L52.9987 140.202L57.6638 137.637L53.0533 134.975L51.5533 137.573ZM49.3121 136.279L50.8121 133.681L49.3121 136.279ZM48.8791 136.029L46.2811 134.529L44.7811 137.127L47.3791 138.627L48.8791 136.029ZM48.8834 136.022L51.4814 137.522L52.9315 135.01L50.4705 133.476L48.8834 136.022ZM58.7204 109.379L58.2747 112.346L65.8225 113.48L61.0668 107.51L58.7204 109.379ZM76.8749 87.539L75.4637 90.1864L78.0229 91.5505L79.473 89.039L76.8749 87.539ZM76.8791 87.5317L78.3791 84.9336L75.7811 83.4336L74.2811 86.0317L76.8791 87.5317ZM77.3121 87.7817L78.8121 85.1836L77.3121 87.7817ZM79.5533 89.0756L78.0533 91.6737L82.6638 94.3356L82.5526 89.0129L79.5533 89.0756ZM100.865 75.9864L99.4541 78.6338L102.013 79.998L103.463 77.4864L100.865 75.9864ZM100.87 75.9791L102.37 73.381L99.7714 71.881L98.2714 74.4791L100.87 75.9791ZM101.303 76.2291L99.8025 78.8272L99.8025 78.8272L101.303 76.2291ZM119.063 86.4834L117.563 89.0814L120.075 90.5315L121.609 88.0705L119.063 86.4834ZM146.811 102.386C151.229 94.0972 148.309 83.7385 140.113 79.0067L137.113 84.2028C142.498 87.3118 144.418 94.1196 141.516 99.5637L146.811 102.386ZM145.67 98.3807L145.663 98.3765L142.664 103.573L142.671 103.578L145.67 98.3807ZM165.07 170.78C179.706 145.431 171.02 113.017 145.671 98.381L142.671 103.577C165.151 116.556 172.853 145.301 159.874 167.78L165.07 170.78ZM92.6708 190.18C118.02 204.815 150.435 196.13 165.07 170.78L159.874 167.78C146.895 190.26 118.151 197.962 95.6708 184.984L92.6708 190.18ZM49.8155 165.437L92.6708 190.18L95.6708 184.984L52.8155 160.241L49.8155 165.437ZM49.8038 165.431L49.8169 165.438L52.8142 160.24L52.8012 160.233L49.8038 165.431ZM49.7882 165.421L49.8012 165.429L52.8038 160.234L52.7908 160.227L49.7882 165.421ZM49.3695 165.18L49.7895 165.422L52.7895 160.226L52.3695 159.984L49.3695 165.18ZM48.2757 161.074L48.2714 161.082L53.4676 164.082L53.4718 164.074L48.2757 161.074ZM43.3971 141.524C38.6653 149.72 41.3159 160.151 49.2866 165.12L52.4609 160.029C47.2256 156.765 45.4843 149.909 48.5932 144.524L43.3971 141.524ZM50.1079 134.944C47.3996 136.433 45.0511 138.659 43.3971 141.524L48.5932 144.524C49.6841 142.635 51.2235 141.178 52.9987 140.202L50.1079 134.944ZM47.8121 138.877L50.0533 140.171L53.0533 134.975L50.8121 133.681L47.8121 138.877ZM47.3791 138.627L47.8121 138.877L50.8121 133.681L50.3791 133.431L47.3791 138.627ZM46.2853 134.522L46.2811 134.529L51.4772 137.529L51.4814 137.522L46.2853 134.522ZM41.4067 114.972C36.6749 123.167 39.3255 133.598 47.2962 138.568L50.4705 133.476C45.2353 130.212 43.4939 123.357 46.6029 117.972L41.4067 114.972ZM59.166 106.413C52.2651 105.376 45.1123 108.553 41.4067 114.972L46.6029 117.972C49.034 113.761 53.7307 111.664 58.2747 112.346L59.166 106.413ZM54.9067 91.589C51.2011 98.0073 52.0258 105.791 56.3739 111.249L61.0668 107.51C58.2037 103.916 57.6717 98.8 60.1029 94.589L54.9067 91.589ZM78.2861 84.8916C69.9972 80.4734 59.6385 83.3933 54.9067 91.589L60.1029 94.589C63.2118 89.2041 70.0196 87.2845 75.4637 90.1864L78.2861 84.8916ZM74.2811 86.0317L74.2768 86.039L79.473 89.039L79.4772 89.0317L74.2811 86.0317ZM78.8121 85.1836L78.3791 84.9336L75.3791 90.1298L75.8121 90.3798L78.8121 85.1836ZM81.0533 86.4775L78.8121 85.1836L75.8121 90.3798L78.0533 91.6737L81.0533 86.4775ZM78.8971 80.0365C77.243 82.9014 76.4894 86.0483 76.5539 89.1382L82.5526 89.0129C82.5103 86.9876 83.0023 84.926 84.0932 83.0365L78.8971 80.0365ZM102.276 73.3391C93.9876 68.9208 83.6289 71.8408 78.8971 80.0365L84.0932 83.0365C87.2022 77.6516 94.01 75.7319 99.4541 78.6338L102.276 73.3391ZM98.2714 74.4791L98.2672 74.4864L103.463 77.4864L103.468 77.4791L98.2714 74.4791ZM102.803 73.631L102.37 73.381L99.3695 78.5772L99.8025 78.8272L102.803 73.631ZM120.563 83.8853L102.803 73.631L99.8025 78.8272L117.563 89.0814L120.563 83.8853ZM140.113 79.0067C131.918 74.2749 121.487 76.9255 116.518 84.8962L121.609 88.0705C124.873 82.8352 131.729 81.0939 137.113 84.2028L140.113 79.0067Z" fill="black" mask="url(#path-3-inside-1_1_58)"/>
<rect x="75.2331" y="150.929" width="4" height="18" transform="rotate(-60 75.2331 150.929)" fill="black"/>
<circle cx="76.2331" cy="149.197" r="2" transform="rotate(-60 76.2331 149.197)" fill="black"/>
<circle cx="91.8215" cy="158.197" r="2" transform="rotate(-60 91.8215 158.197)" fill="black"/>
<rect x="87.7331" y="129.278" width="4" height="18" transform="rotate(-60 87.7331 129.278)" fill="black"/>
<circle cx="88.7331" cy="127.546" r="2" transform="rotate(-60 88.7331 127.546)" fill="black"/>
<circle cx="104.322" cy="136.546" r="2" transform="rotate(-60 104.322 136.546)" fill="black"/>
<rect x="100.733" y="106.762" width="4" height="18" transform="rotate(-60 100.733 106.762)" fill="black"/>
<circle cx="101.733" cy="105.03" r="2" transform="rotate(-60 101.733 105.03)" fill="black"/>
<circle cx="117.322" cy="114.03" r="2" transform="rotate(-60 117.322 114.03)" fill="black"/>
</svg>
